{"asset":{"version":"2.0","generator":"VECTARY"},"nodes":[{"translation":[0.028173112346801078,-0.015277183684153895,-2.6645352591003758e-18],"scale":[0.001,0.001,0.001],"rotation":[-0.7071067811865475,0,0,0.7071067811865476],"name":"Sphere 1","mesh":0},{"translation":[0.09156155463073182,0.1047228163158461,2.1316282072803006e-17],"scale":[0.001,0.001,0.001],"rotation":[-0.7071067811865475,0,0,0.7071067811865476],"name":"Sphere 3","mesh":1},{"translation":[-0.08843844536926818,0.1047228163158461,2.1316282072803006e-17],"scale":[0.001,0.001,0.001],"rotation":[-0.7071067811865475,0,0,0.7071067811865476],"name":"Sphere 2","mesh":2},{"translation":[-0.026826887653198923,-0.015277183684153895,-2.6645352591003758e-18],"scale":[0.001,0.001,0.001],"rotation":[-0.7071067811865475,0,0,0.7071067811865476],"name":"Sphere","mesh":3},{"translation":[0.08681368469802886,0.12225523435015248,1.4210854715202004e-17],"scale":[0.001,0.001,0.001],"rotation":[-0.6532814824381881,-0.2705980500730989,0.27059805007309884,0.6532814824381882],"name":"Cylinder 4","mesh":4},{"translation":[-0.08536298935682599,0.12499027556645079,2.1316282072803006e-17],"scale":[0.001,0.001,0.001],"rotation":[-0.6532814824381883,0.2705980500730982,-0.2705980500730981,0.6532814824381884],"name":"Cylinder 3","mesh":5},{"translation":[0.026226250546806697,0,0],"scale":[0.001,0.001,0.001],"rotation":[-0.7071067811865475,0,0,0.7071067811865476],"name":"Cylinder 2","mesh":6},{"translation":[-0.026723564889414235,0,0],"scale":[0.001,0.001,0.001],"rotation":[-0.7071067811865475,0,0,0.7071067811865476],"name":"Cylinder 1","mesh":7},{"translation":[0,0.03926131057739258,7.105427357601002e-18],"scale":[0.001,0.001,0.001],"rotation":[-0.7071067811865475,0,0,0.7071067811865476],"name":"Merged Objects 1","mesh":8},{"translation":[0,0.17,0.007049999237060562],"scale":[0.001,0.001,0.001],"rotation":[-0.7071067811865475,0,0,0.7071067811865476],"name":"Group","children":[10,11,12,13]},{"translation":[0,7.049999237060547,20],"scale":[1,1,1],"rotation":[0,0,0,1],"name":"Torus 2","mesh":9},{"translation":[-4.622231866529362e-31,-5.668409200575098,30],"scale":[1,1,1],"rotation":[0.4999999999999999,-0.5000000000000001,0.5000000000000001,0.4999999999999999],"name":"Cylinder","mesh":10},{"translation":[0,-22.950000762939453,30],"scale":[1,1,1],"rotation":[0.7071067811865475,0,0,0.7071067811865476],"name":"Torus 1","mesh":11},{"translation":[0,-19.950000762939453,30],"scale":[1,1,1],"rotation":[0.7071067811865475,0,0,0.7071067811865476],"name":"Torus","mesh":12},{"translation":[0,0.11,2.1316282072803006e-17],"scale":[0.001,0.001,0.001],"rotation":[-0.7071067811865475,0,0,0.7071067811865476],"name":"Merged Objects","mesh":13}],"materials":[{"pbrMetallicRoughness":{"baseColorFactor":[0.08021925873621505,0.08021925873621505,0.09626612306333969,1],"metallicFactor":0,"roughnessFactor":0.2},"name":"Lola 1","emissiveFactor":[0,0,0],"extensions":{},"alphaMode":"OPAQUE","doubleSided":false},{"pbrMetallicRoughness":{"baseColorFactor":[0.08021925873621505,0.08021925873621505,0.09626612306333969,1],"metallicFactor":0,"roughnessFactor":0.2},"name":"Lola 3","emissiveFactor":[0,0,0],"extensions":{},"alphaMode":"OPAQUE","doubleSided":false},{"pbrMetallicRoughness":{"baseColorFactor":[0.08021925873621505,0.08021925873621505,0.09626612306333969,1],"metallicFactor":0,"roughnessFactor":0.2},"name":"Lola 2","emissiveFactor":[0,0,0],"extensions":{},"alphaMode":"OPAQUE","doubleSided":false},{"pbrMetallicRoughness":{"baseColorFactor":[0.08021925873621505,0.08021925873621505,0.09626612306333969,1],"metallicFactor":0,"roughnessFactor":0.2},"name":"Lola","emissiveFactor":[0,0,0],"extensions":{},"alphaMode":"OPAQUE","doubleSided":false},{"pbrMetallicRoughness":{"baseColorFactor":[0.7154654323350483,0.6940805197968822,0.028991186547107816,1],"metallicFactor":0,"roughnessFactor":0.2},"name":"Pyramid 1","emissiveFactor":[0,0,0],"extensions":{},"alphaMode":"OPAQUE","doubleSided":false},{"pbrMetallicRoughness":{"baseColorFactor":[0.7154654323350483,0.6940805197968822,0.028991186547107816,1],"metallicFactor":0,"roughnessFactor":0.2},"name":"Pyramid","emissiveFactor":[0,0,0],"extensions":{},"alphaMode":"OPAQUE","doubleSided":false},{"pbrMetallicRoughness":{"baseColorFactor":[0.11392093340633272,0.11392093340633272,0.1332085131842997,1],"metallicFactor":0,"roughnessFactor":0.2},"name":"Fantasy 1","emissiveFactor":[0,0,0],"extensions":{},"alphaMode":"OPAQUE","doubleSided":false},{"pbrMetallicRoughness":{"baseColorFactor":[0.11129941482466024,0.11392093340633272,0.13035227805624436,1],"metallicFactor":0,"roughnessFactor":0.2},"name":"Fantasy","emissiveFactor":[0,0,0],"extensions":{},"alphaMode":"OPAQUE","doubleSided":false},{"pbrMetallicRoughness":{"baseColorFactor":[0.11926401300504741,0.12198571316961948,0.14799802298268516,1],"metallicFactor":0,"roughnessFactor":0.2},"name":"Time Capsule","emissiveFactor":[0,0,0],"extensions":{},"alphaMode":"OPAQUE","doubleSided":false},{"pbrMetallicRoughness":{"baseColorFactor":[0.04943345755590796,0.04943345755590796,0.051122050056493396,1],"metallicFactor":0,"roughnessFactor":0.2},"name":"Uranus","emissiveFactor":[0,0,0],"extensions":{},"alphaMode":"OPAQUE","doubleSided":false},{"pbrMetallicRoughness":{"baseColorFactor":[0.41514809165590655,0.41514809165590655,0.41514809165590655,1],"metallicFactor":0,"roughnessFactor":0.2},"name":"Solitaire","emissiveFactor":[0,0,0],"extensions":{},"alphaMode":"OPAQUE","doubleSided":false},{"pbrMetallicRoughness":{"baseColorFactor":[0,0,0,1],"metallicFactor":0,"roughnessFactor":0.2},"name":"Beluga","emissiveFactor":[0,0,0],"extensions":{},"alphaMode":"OPAQUE","doubleSided":false},{"pbrMetallicRoughness":{"baseColorFactor":[1,1,1,1],"metallicFactor":0,"roughnessFactor":0.2},"name":"Ballon","emissiveFactor":[0,0,0],"extensions":{},"alphaMode":"OPAQUE","doubleSided":false},{"pbrMetallicRoughness":{"baseColorFactor":[1,0.9658146535031301,0,1],"metallicFactor":0,"roughnessFactor":0.2},"name":"Bubble","emissiveFactor":[0,0,0],"extensions":{},"alphaMode":"OPAQUE","doubleSided":false}],"meshes":[{"primitives":[{"mode":4,"attributes":{"POSITION":1,"NORMAL":2,"TEXCOORD_0":3},"material":0,"indices":0}]},{"primitives":[{"mode":4,"attributes":{"POSITION":5,"NORMAL":6,"TEXCOORD_0":7},"material":1,"indices":4}]},{"primitives":[{"mode":4,"attributes":{"POSITION":9,"NORMAL":10,"TEXCOORD_0":11},"material":2,"indices":8}]},{"primitives":[{"mode":4,"attributes":{"POSITION":13,"NORMAL":14,"TEXCOORD_0":15},"material":3,"indices":12}]},{"primitives":[{"mode":4,"attributes":{"POSITION":17,"NORMAL":18,"TEXCOORD_0":19},"material":4,"indices":16}]},{"primitives":[{"mode":4,"attributes":{"POSITION":21,"NORMAL":22,"TEXCOORD_0":23},"material":5,"indices":20}]},{"primitives":[{"mode":4,"attributes":{"POSITION":25,"NORMAL":26,"TEXCOORD_0":27},"material":6,"indices":24}]},{"primitives":[{"mode":4,"attributes":{"POSITION":29,"NORMAL":30,"TEXCOORD_0":31},"material":7,"indices":28}]},{"primitives":[{"mode":4,"attributes":{"POSITION":33,"NORMAL":34,"TEXCOORD_0":35},"material":8,"indices":32}]},{"primitives":[{"mode":4,"attributes":{"POSITION":37,"NORMAL":38,"TEXCOORD_0":39},"material":9,"indices":36}]},{"primitives":[{"mode":4,"attributes":{"POSITION":41,"NORMAL":42,"TEXCOORD_0":43},"material":10,"indices":40}]},{"primitives":[{"mode":4,"attributes":{"POSITION":45,"NORMAL":46,"TEXCOORD_0":47},"material":11,"indices":44}]},{"primitives":[{"mode":4,"attributes":{"POSITION":49,"NORMAL":50,"TEXCOORD_0":51},"material":12,"indices":48}]},{"primitives":[{"mode":4,"attributes":{"POSITION":53,"NORMAL":54,"TEXCOORD_0":55},"material":13,"indices":52}]}],"accessors":[{"bufferView":0,"byteOffset":0,"componentType":5125,"count":11904,"type":"SCALAR"},{"bufferView":1,"byteOffset":0,"componentType":5126,"count":2143,"max":[20,20,40],"min":[-20,-20,0],"type":"VEC3"},{"bufferView":2,"byteOffset":0,"componentType":5126,"count":2143,"type":"VEC3"},{"bufferView":3,"byteOffset":0,"componentType":5126,"count":2143,"type":"VEC2"},{"bufferView":4,"byteOffset":0,"componentType":5125,"count":11904,"type":"SCALAR"},{"bufferView":5,"byteOffset":0,"componentType":5126,"count":2143,"max":[13.699999809265137,13.699999809265137,27.399999618530273],"min":[-13.699999809265137,-13.699999809265137,1.9073486612342094e-7],"type":"VEC3"},{"bufferView":6,"byteOffset":0,"componentType":5126,"count":2143,"type":"VEC3"},{"bufferView":7,"byteOffset":0,"componentType":5126,"count":2143,"type":"VEC2"},{"bufferView":8,"byteOffset":0,"componentType":5125,"count":11904,"type":"SCALAR"},{"bufferView":9,"byteOffset":0,"componentType":5126,"count":2143,"max":[13.699999809265137,13.699999809265137,27.399999618530273],"min":[-13.699999809265137,-13.699999809265137,1.9073486612342094e-7],"type":"VEC3"},{"bufferView":10,"byteOffset":0,"componentType":5126,"count":2143,"type":"VEC3"},{"bufferView":11,"byteOffset":0,"componentType":5126,"count":2143,"type":"VEC2"},{"bufferView":12,"byteOffset":0,"componentType":5125,"count":11904,"type":"SCALAR"},{"bufferView":13,"byteOffset":0,"componentType":5126,"count":2143,"max":[20,20,40],"min":[-20,-20,0],"type":"VEC3"},{"bufferView":14,"byteOffset":0,"componentType":5126,"count":2143,"type":"VEC3"},{"bufferView":15,"byteOffset":0,"componentType":5126,"count":2143,"type":"VEC2"},{"bufferView":16,"byteOffset":0,"componentType":5125,"count":6912,"type":"SCALAR"},{"bufferView":17,"byteOffset":0,"componentType":5126,"count":1302,"max":[9,9,64.5],"min":[-9,-9,0],"type":"VEC3"},{"bufferView":18,"byteOffset":0,"componentType":5126,"count":1302,"type":"VEC3"},{"bufferView":19,"byteOffset":0,"componentType":5126,"count":1302,"type":"VEC2"},{"bufferView":20,"byteOffset":0,"componentType":5125,"count":6912,"type":"SCALAR"},{"bufferView":21,"byteOffset":0,"componentType":5126,"count":1302,"max":[9.600000381469727,9.600000381469727,60],"min":[-9.600000381469727,-9.600000381469727,0],"type":"VEC3"},{"bufferView":22,"byteOffset":0,"componentType":5126,"count":1302,"type":"VEC3"},{"bufferView":23,"byteOffset":0,"componentType":5126,"count":1302,"type":"VEC2"},{"bufferView":24,"byteOffset":0,"componentType":5125,"count":6912,"type":"SCALAR"},{"bufferView":25,"byteOffset":0,"componentType":5126,"count":1302,"max":[14.5,14.5,60],"min":[-14.5,-14.5,0],"type":"VEC3"},{"bufferView":26,"byteOffset":0,"componentType":5126,"count":1302,"type":"VEC3"},{"bufferView":27,"byteOffset":0,"componentType":5126,"count":1302,"type":"VEC2"},{"bufferView":28,"byteOffset":0,"componentType":5125,"count":6912,"type":"SCALAR"},{"bufferView":29,"byteOffset":0,"componentType":5126,"count":1302,"max":[15.199999809265137,15.199999809265137,60],"min":[-15.199999809265137,-15.199999809265137,0],"type":"VEC3"},{"bufferView":30,"byteOffset":0,"componentType":5126,"count":1302,"type":"VEC3"},{"bufferView":31,"byteOffset":0,"componentType":5126,"count":1302,"type":"VEC2"},{"bufferView":32,"byteOffset":0,"componentType":5125,"count":18816,"type":"SCALAR"},{"bufferView":33,"byteOffset":0,"componentType":5126,"count":3445,"max":[56.400001525878906,56.400001525878906,112.60000610351562],"min":[-56.400001525878906,-56.400001525878906,0],"type":"VEC3"},{"bufferView":34,"byteOffset":0,"componentType":5126,"count":3445,"type":"VEC3"},{"bufferView":35,"byteOffset":0,"componentType":5126,"count":3445,"type":"VEC2"},{"bufferView":36,"byteOffset":0,"componentType":5125,"count":12288,"type":"SCALAR"},{"bufferView":37,"byteOffset":0,"componentType":5126,"count":2145,"max":[55.900001525878906,55.900001525878906,20],"min":[-55.900001525878906,-55.900001525878906,0],"type":"VEC3"},{"bufferView":38,"byteOffset":0,"componentType":5126,"count":2145,"type":"VEC3"},{"bufferView":39,"byteOffset":0,"componentType":5126,"count":2145,"type":"VEC2"},{"bufferView":40,"byteOffset":0,"componentType":5125,"count":6912,"type":"SCALAR"},{"bufferView":41,"byteOffset":0,"componentType":5126,"count":1302,"max":[30,30,50],"min":[-30,-30,0],"type":"VEC3"},{"bufferView":42,"byteOffset":0,"componentType":5126,"count":1302,"type":"VEC3"},{"bufferView":43,"byteOffset":0,"componentType":5126,"count":1302,"type":"VEC2"},{"bufferView":44,"byteOffset":0,"componentType":5125,"count":12288,"type":"SCALAR"},{"bufferView":45,"byteOffset":0,"componentType":5126,"count":2145,"max":[20,20,40],"min":[-20,-20,0],"type":"VEC3"},{"bufferView":46,"byteOffset":0,"componentType":5126,"count":2145,"type":"VEC3"},{"bufferView":47,"byteOffset":0,"componentType":5126,"count":2145,"type":"VEC2"},{"bufferView":48,"byteOffset":0,"componentType":5125,"count":12288,"type":"SCALAR"},{"bufferView":49,"byteOffset":0,"componentType":5126,"count":2145,"max":[30,30,40],"min":[-30,-30,0],"type":"VEC3"},{"bufferView":50,"byteOffset":0,"componentType":5126,"count":2145,"type":"VEC3"},{"bufferView":51,"byteOffset":0,"componentType":5126,"count":2145,"type":"VEC2"},{"bufferView":52,"byteOffset":0,"componentType":5125,"count":18816,"type":"SCALAR"},{"bufferView":53,"byteOffset":0,"componentType":5126,"count":3445,"max":[50,50,150],"min":[-50,-50,0],"type":"VEC3"},{"bufferView":54,"byteOffset":0,"componentType":5126,"count":3445,"type":"VEC3"},{"bufferView":55,"byteOffset":0,"componentType":5126,"count":3445,"type":"VEC2"}],"bufferViews":[{"buffer":0,"byteOffset":0,"byteLength":47616,"target":34963},{"buffer":0,"byteOffset":47616,"byteLength":25716,"target":34962},{"buffer":0,"byteOffset":73332,"byteLength":25716,"target":34962},{"buffer":0,"byteOffset":99048,"byteLength":17144,"target":34962},{"buffer":0,"byteOffset":116192,"byteLength":47616,"target":34963},{"buffer":0,"byteOffset":163808,"byteLength":25716,"target":34962},{"buffer":0,"byteOffset":189524,"byteLength":25716,"target":34962},{"buffer":0,"byteOffset":215240,"byteLength":17144,"target":34962},{"buffer":0,"byteOffset":232384,"byteLength":47616,"target":34963},{"buffer":0,"byteOffset":280000,"byteLength":25716,"target":34962},{"buffer":0,"byteOffset":305716,"byteLength":25716,"target":34962},{"buffer":0,"byteOffset":331432,"byteLength":17144,"target":34962},{"buffer":0,"byteOffset":348576,"byteLength":47616,"target":34963},{"buffer":0,"byteOffset":396192,"byteLength":25716,"target":34962},{"buffer":0,"byteOffset":421908,"byteLength":25716,"target":34962},{"buffer":0,"byteOffset":447624,"byteLength":17144,"target":34962},{"buffer":0,"byteOffset":464768,"byteLength":27648,"target":34963},{"buffer":0,"byteOffset":492416,"byteLength":15624,"target":34962},{"buffer":0,"byteOffset":508040,"byteLength":15624,"target":34962},{"buffer":0,"byteOffset":523664,"byteLength":10416,"target":34962},{"buffer":0,"byteOffset":534080,"byteLength":27648,"target":34963},{"buffer":0,"byteOffset":561728,"byteLength":15624,"target":34962},{"buffer":0,"byteOffset":577352,"byteLength":15624,"target":34962},{"buffer":0,"byteOffset":592976,"byteLength":10416,"target":34962},{"buffer":0,"byteOffset":603392,"byteLength":27648,"target":34963},{"buffer":0,"byteOffset":631040,"byteLength":15624,"target":34962},{"buffer":0,"byteOffset":646664,"byteLength":15624,"target":34962},{"buffer":0,"byteOffset":662288,"byteLength":10416,"target":34962},{"buffer":0,"byteOffset":672704,"byteLength":27648,"target":34963},{"buffer":0,"byteOffset":700352,"byteLength":15624,"target":34962},{"buffer":0,"byteOffset":715976,"byteLength":15624,"target":34962},{"buffer":0,"byteOffset":731600,"byteLength":10416,"target":34962},{"buffer":0,"byteOffset":742016,"byteLength":75264,"target":34963},{"buffer":0,"byteOffset":817280,"byteLength":41340,"target":34962},{"buffer":0,"byteOffset":858620,"byteLength":41340,"target":34962},{"buffer":0,"byteOffset":899960,"byteLength":27560,"target":34962},{"buffer":0,"byteOffset":927520,"byteLength":49152,"target":34963},{"buffer":0,"byteOffset":976672,"byteLength":25740,"target":34962},{"buffer":0,"byteOffset":1002412,"byteLength":25740,"target":34962},{"buffer":0,"byteOffset":1028152,"byteLength":17160,"target":34962},{"buffer":0,"byteOffset":1045312,"byteLength":27648,"target":34963},{"buffer":0,"byteOffset":1072960,"byteLength":15624,"target":34962},{"buffer":0,"byteOffset":1088584,"byteLength":15624,"target":34962},{"buffer":0,"byteOffset":1104208,"byteLength":10416,"target":34962},{"buffer":0,"byteOffset":1114624,"byteLength":49152,"target":34963},{"buffer":0,"byteOffset":1163776,"byteLength":25740,"target":34962},{"buffer":0,"byteOffset":1189516,"byteLength":25740,"target":34962},{"buffer":0,"byteOffset":1215256,"byteLength":17160,"target":34962},{"buffer":0,"byteOffset":1232416,"byteLength":49152,"target":34963},{"buffer":0,"byteOffset":1281568,"byteLength":25740,"target":34962},{"buffer":0,"byteOffset":1307308,"byteLength":25740,"target":34962},{"buffer":0,"byteOffset":1333048,"byteLength":17160,"target":34962},{"buffer":0,"byteOffset":1350208,"byteLength":75264,"target":34963},{"buffer":0,"byteOffset":1425472,"byteLength":41340,"target":34962},{"buffer":0,"byteOffset":1466812,"byteLength":41340,"target":34962},{"buffer":0,"byteOffset":1508152,"byteLength":27560,"target":34962}],"scene":0,"scenes":[{"nodes":[0,1,2,3,4,5,6,7,8,9,14],"name":"Project Name"}],"extensionsUsed":["KHR_texture_transform"],"buffers":[{"byteLength":1535712,"uri":"ProjectName.bin"}]}